<svg height="1710" width="720" xmlns="http://www.w3.org/2000/svg">
<rect height="1710" fill="#555" width="720"></rect>
<text fill="#7f7" font-family="Courier New" font-size="12" xml:space="preserve">
<tspan x="10" y="26">18 megabytes installed</tspan>
<tspan x="10" y="42"></tspan>
<tspan x="10" y="58">node_modules</tspan>
<tspan x="10" y="74">└─┬ gulp-babel@6.1.2 </tspan>
<tspan x="10" y="90">  ├─┬ babel-core@6.24.1 </tspan>
<tspan x="10" y="106">  │ ├─┬ babel-code-frame@6.22.0 </tspan>
<tspan x="10" y="122">  │ │ ├── esutils@2.0.2 </tspan>
<tspan x="10" y="138">  │ │ └── js-tokens@3.0.1 </tspan>
<tspan x="10" y="154">  │ ├─┬ babel-generator@6.24.1 </tspan>
<tspan x="10" y="170">  │ │ ├─┬ detect-indent@4.0.0 </tspan>
<tspan x="10" y="186">  │ │ │ └─┬ repeating@2.0.1 </tspan>
<tspan x="10" y="202">  │ │ │   └─┬ is-finite@1.0.2 </tspan>
<tspan x="10" y="218">  │ │ │     └── number-is-nan@1.0.1 </tspan>
<tspan x="10" y="234">  │ │ ├── jsesc@1.3.0 </tspan>
<tspan x="10" y="250">  │ │ └── trim-right@1.0.1 </tspan>
<tspan x="10" y="266">  │ ├── babel-helpers@6.24.1 </tspan>
<tspan x="10" y="282">  │ ├── babel-messages@6.23.0 </tspan>
<tspan x="10" y="298">  │ ├─┬ babel-register@6.24.1 </tspan>
<tspan x="10" y="314">  │ │ ├── core-js@2.4.1 </tspan>
<tspan x="10" y="330">  │ │ ├─┬ home-or-tmp@2.0.0 </tspan>
<tspan x="10" y="346">  │ │ │ ├── os-homedir@1.0.2 </tspan>
<tspan x="10" y="362">  │ │ │ └── os-tmpdir@1.0.2 </tspan>
<tspan x="10" y="378">  │ │ ├─┬ mkdirp@0.5.1 </tspan>
<tspan x="10" y="394">  │ │ │ └── minimist@0.0.8 </tspan>
<tspan x="10" y="410">  │ │ └── source-map-support@0.4.14 </tspan>
<tspan x="10" y="426">  │ ├─┬ babel-runtime@6.23.0 </tspan>
<tspan x="10" y="442">  │ │ └── regenerator-runtime@0.10.3 </tspan>
<tspan x="10" y="458">  │ ├── babel-template@6.24.1 </tspan>
<tspan x="10" y="474">  │ ├─┬ babel-traverse@6.24.1 </tspan>
<tspan x="10" y="490">  │ │ ├── globals@9.17.0 </tspan>
<tspan x="10" y="506">  │ │ └─┬ invariant@2.2.2 </tspan>
<tspan x="10" y="522">  │ │   └── loose-envify@1.3.1 </tspan>
<tspan x="10" y="538">  │ ├─┬ babel-types@6.24.1 </tspan>
<tspan x="10" y="554">  │ │ └── to-fast-properties@1.0.2 </tspan>
<tspan x="10" y="570">  │ ├── babylon@6.16.1 </tspan>
<tspan x="10" y="586">  │ ├── convert-source-map@1.5.0 </tspan>
<tspan x="10" y="602">  │ ├─┬ debug@2.6.3 </tspan>
<tspan x="10" y="618">  │ │ └── ms@0.7.2 </tspan>
<tspan x="10" y="634">  │ ├── json5@0.5.1 </tspan>
<tspan x="10" y="650">  │ ├── lodash@4.17.4 </tspan>
<tspan x="10" y="666">  │ ├─┬ minimatch@3.0.3 </tspan>
<tspan x="10" y="682">  │ │ └─┬ brace-expansion@1.1.7 </tspan>
<tspan x="10" y="698">  │ │   ├── balanced-match@0.4.2 </tspan>
<tspan x="10" y="714">  │ │   └── concat-map@0.0.1 </tspan>
<tspan x="10" y="730">  │ ├── path-is-absolute@1.0.1 </tspan>
<tspan x="10" y="746">  │ ├── private@0.1.7 </tspan>
<tspan x="10" y="762">  │ ├── slash@1.0.0 </tspan>
<tspan x="10" y="778">  │ └── source-map@0.5.6 </tspan>
<tspan x="10" y="794">  ├─┬ gulp-util@3.0.8 </tspan>
<tspan x="10" y="810">  │ ├── array-differ@1.0.0 </tspan>
<tspan x="10" y="826">  │ ├── array-uniq@1.0.3 </tspan>
<tspan x="10" y="842">  │ ├── beeper@1.1.1 </tspan>
<tspan x="10" y="858">  │ ├─┬ chalk@1.1.3 </tspan>
<tspan x="10" y="874">  │ │ ├── ansi-styles@2.2.1 </tspan>
<tspan x="10" y="890">  │ │ ├── escape-string-regexp@1.0.5 </tspan>
<tspan x="10" y="906">  │ │ ├─┬ has-ansi@2.0.0 </tspan>
<tspan x="10" y="922">  │ │ │ └── ansi-regex@2.1.1 </tspan>
<tspan x="10" y="938">  │ │ ├── strip-ansi@3.0.1 </tspan>
<tspan x="10" y="954">  │ │ └── supports-color@2.0.0 </tspan>
<tspan x="10" y="970">  │ ├── dateformat@2.0.0 </tspan>
<tspan x="10" y="986">  │ ├─┬ fancy-log@1.3.0 </tspan>
<tspan x="10" y="1002">  │ │ └── time-stamp@1.0.1 </tspan>
<tspan x="10" y="1018">  │ ├─┬ gulplog@1.0.0 </tspan>
<tspan x="10" y="1034">  │ │ └── glogg@1.0.0 </tspan>
<tspan x="10" y="1050">  │ ├─┬ has-gulplog@0.1.0 </tspan>
<tspan x="10" y="1066">  │ │ └── sparkles@1.0.0 </tspan>
<tspan x="10" y="1082">  │ ├── lodash._reescape@3.0.0 </tspan>
<tspan x="10" y="1098">  │ ├── lodash._reevaluate@3.0.0 </tspan>
<tspan x="10" y="1114">  │ ├── lodash._reinterpolate@3.0.0 </tspan>
<tspan x="10" y="1130">  │ ├─┬ lodash.template@3.6.2 </tspan>
<tspan x="10" y="1146">  │ │ ├── lodash._basecopy@3.0.1 </tspan>
<tspan x="10" y="1162">  │ │ ├── lodash._basetostring@3.0.1 </tspan>
<tspan x="10" y="1178">  │ │ ├── lodash._basevalues@3.0.0 </tspan>
<tspan x="10" y="1194">  │ │ ├── lodash._isiterateecall@3.0.9 </tspan>
<tspan x="10" y="1210">  │ │ ├─┬ lodash.escape@3.2.0 </tspan>
<tspan x="10" y="1226">  │ │ │ └── lodash._root@3.0.1 </tspan>
<tspan x="10" y="1242">  │ │ ├─┬ lodash.keys@3.1.2 </tspan>
<tspan x="10" y="1258">  │ │ │ ├── lodash._getnative@3.9.1 </tspan>
<tspan x="10" y="1274">  │ │ │ ├── lodash.isarguments@3.1.0 </tspan>
<tspan x="10" y="1290">  │ │ │ └── lodash.isarray@3.0.4 </tspan>
<tspan x="10" y="1306">  │ │ ├── lodash.restparam@3.6.1 </tspan>
<tspan x="10" y="1322">  │ │ └── lodash.templatesettings@3.1.1 </tspan>
<tspan x="10" y="1338">  │ ├── minimist@1.2.0 </tspan>
<tspan x="10" y="1354">  │ ├─┬ multipipe@0.1.2 </tspan>
<tspan x="10" y="1370">  │ │ └─┬ duplexer2@0.0.2 </tspan>
<tspan x="10" y="1386">  │ │   └─┬ readable-stream@1.1.14 </tspan>
<tspan x="10" y="1402">  │ │     ├── isarray@0.0.1 </tspan>
<tspan x="10" y="1418">  │ │     └── string_decoder@0.10.31 </tspan>
<tspan x="10" y="1434">  │ ├── object-assign@3.0.0 </tspan>
<tspan x="10" y="1450">  │ └─┬ vinyl@0.5.3 </tspan>
<tspan x="10" y="1466">  │   ├── clone@1.0.2 </tspan>
<tspan x="10" y="1482">  │   └── clone-stats@0.0.1 </tspan>
<tspan x="10" y="1498">  ├── object-assign@4.1.1 </tspan>
<tspan x="10" y="1514">  ├── replace-ext@0.0.1 </tspan>
<tspan x="10" y="1530">  ├─┬ through2@2.0.3 </tspan>
<tspan x="10" y="1546">  │ ├─┬ readable-stream@2.2.9 </tspan>
<tspan x="10" y="1562">  │ │ ├── buffer-shims@1.0.0 </tspan>
<tspan x="10" y="1578">  │ │ ├── core-util-is@1.0.2 </tspan>
<tspan x="10" y="1594">  │ │ ├── inherits@2.0.3 </tspan>
<tspan x="10" y="1610">  │ │ ├── isarray@1.0.0 </tspan>
<tspan x="10" y="1626">  │ │ ├── process-nextick-args@1.0.7 </tspan>
<tspan x="10" y="1642">  │ │ ├── string_decoder@1.0.0 </tspan>
<tspan x="10" y="1658">  │ │ └── util-deprecate@1.0.2 </tspan>
<tspan x="10" y="1674">  │ └── xtend@4.0.1 </tspan>
<tspan x="10" y="1690">  └── vinyl-sourcemaps-apply@0.2.1</tspan>
</text>
</svg>
